<svg xmlns="http://www.w3.org/2000/svg" viewBox="-60 -58 120 120" width="64" height="64">
  <!-- Tubarão SCV (favicon) -->
  <path fill="#14a9cb" d="M0,-52 C18,-52 33,-32 33,-6 C33,28 18,50 0,50 C-18,50 -33,28 -33,-6 C-33,-32 -18,-52 0,-52 Z"/>
  <path fill="#14a9cb" d="M-31,2 L-54,15 L-29,20 Z"/>
  <path fill="#14a9cb" d="M31,2 L54,15 L29,20 Z"/>
  <circle cx="-14" cy="-10" r="8.5" fill="#fbfaf6"/>
  <circle cx="14" cy="-10" r="8.5" fill="#fbfaf6"/>
  <circle cx="-14" cy="-10" r="3.6" fill="#0a1a22"/>
  <circle cx="14" cy="-10" r="3.6" fill="#0a1a22"/>
  <path d="M-16,16 Q0,31 16,16" fill="none" stroke="#fbfaf6" stroke-width="4.5" stroke-linecap="round"/>
  <path d="M-25,1 l8,3 M-26,8 l8,2" stroke="#fbfaf6" stroke-width="2.6" stroke-linecap="round" fill="none"/>
  <path d="M25,1 l-8,3 M26,8 l-8,2" stroke="#fbfaf6" stroke-width="2.6" stroke-linecap="round" fill="none"/>
</svg>
